<?xml version="1.0" encoding="UTF-8"?>
<svg xmlns="http://www.w3.org/2000/svg" width="800" height="794" viewBox="0 0 800 794">
  <path fill="#E65221" fill-rule="evenodd" d="M 454.000 740.169 L 438.000 740.221 L 414.000 732.016 L 402.432 723.000 L 391.760 710.000 L 386.776 700.000 L 341.224 565.000 L 331.714 548.000 L 313.000 525.926 L 298.000 513.984 L 273.000 500.638 L 136.000 455.227 L 117.981 441.000 L 106.773 421.000 L 103.594 404.000 L 104.774 277.000 L 110.773 259.000 L 117.984 248.000 L 131.000 236.293 L 148.000 227.834 L 577.000 61.333 L 602.000 55.836 L 626.000 58.774 L 647.000 68.984 L 661.028 82.000 L 674.667 109.000 L 677.496 146.000 L 677.452 220.000 L 676.448 249.000 L 673.496 262.000 L 662.227 292.000 L 658.805 297.000 L 650.227 323.000 L 646.773 328.000 L 638.476 353.000 L 635.816 356.000 L 627.188 383.000 L 624.524 386.000 L 604.227 442.000 L 600.773 447.000 L 581.188 502.000 L 578.524 505.000 L 570.227 530.000 L 566.805 535.000 L 503.227 703.000 L 495.016 717.000 L 485.000 727.028 L 469.000 736.224 L 454.000 740.169 Z M 454.000 607.226 L 438.000 607.452 L 428.000 604.196 L 417.000 597.064 L 407.760 585.000 L 361.227 449.000 L 349.240 426.000 L 333.500 406.000 L 314.000 388.759 L 286.000 372.773 L 152.000 328.230 L 142.000 323.240 L 131.000 312.340 L 124.776 300.000 L 123.500 292.000 L 124.774 277.000 L 135.000 258.686 L 150.000 248.773 L 585.000 79.773 L 605.000 75.548 L 616.000 76.774 L 628.000 80.804 L 636.000 85.759 L 649.240 100.000 L 656.452 119.000 L 655.226 141.000 L 484.227 584.000 L 473.340 598.000 L 461.000 605.227 L 454.000 607.226 Z"/>
  <path fill="#FFFFFF" d="M 454.000 607.226 L 438.000 607.452 L 428.000 604.196 L 417.000 597.064 L 407.760 585.000 L 361.227 449.000 L 349.240 426.000 L 333.500 406.000 L 314.000 388.759 L 286.000 372.773 L 152.000 328.230 L 142.000 323.240 L 131.000 312.340 L 124.776 300.000 L 123.500 292.000 L 124.774 277.000 L 135.000 258.686 L 150.000 248.773 L 585.000 79.773 L 605.000 75.548 L 616.000 76.774 L 628.000 80.804 L 636.000 85.759 L 649.240 100.000 L 656.452 119.000 L 655.226 141.000 L 484.227 584.000 L 473.340 598.000 L 461.000 605.227 L 454.000 607.226 Z"/>
</svg>
